{
  "accessors": [
    {
      "bufferView": 2,
      "componentType": 5126,
      "count": 13151,
      "max": [
        109.31999969482422,
        103.23999786376953,
        133.91999816894531
      ],
      "min": [
        -79.359970092773438,
        -94.120010375976562,
        -168.24000549316406
      ],
      "type": "VEC3"
    },
    {
      "bufferView": 2,
      "byteOffset": 157812,
      "componentType": 5126,
      "count": 13151,
      "max": [
        1,
        1,
        1
      ],
      "min": [
        -1,
        -1,
        -1
      ],
      "type": "VEC3"
    },
    {
      "bufferView": 3,
      "componentType": 5126,
      "count": 13151,
      "max": [
        1,
        1,
        0.99985462427139282,
        1
      ],
      "min": [
        -0.99998939037322998,
        -1,
        -0.9998888373374939,
        -1
      ],
      "type": "VEC4"
    },
    {
      "bufferView": 1,
      "componentType": 5126,
      "count": 13151,
      "max": [
        0.9716796875,
        0.990234375
      ],
      "min": [
        -0.990234375,
        0.00949859619140625
      ],
      "type": "VEC2"
    },
    {
      "bufferView": 0,
      "componentType": 5125,
      "count": 17202,
      "max": [
        13150
      ],
      "min": [
        0
      ],
      "type": "SCALAR"
    },
    {
      "bufferView": 2,
      "byteOffset": 315624,
      "componentType": 5126,
      "count": 1950,
      "max": [
        112.59999847412109,
        52.599979400634766,
        55.840019226074219
      ],
      "min": [
        26.599990844726562,
        -52.600021362304688,
        -22.199989318847656
      ],
      "type": "VEC3"
    },
    {
      "bufferView": 2,
      "byteOffset": 339024,
      "componentType": 5126,
      "count": 1950,
      "max": [
        1,
        0.97303789854049683,
        1
      ],
      "min": [
        -0.31401309370994568,
        -0.97303783893585205,
        -0.99688339233398438
      ],
      "type": "VEC3"
    },
    {
      "bufferView": 3,
      "byteOffset": 210416,
      "componentType": 5126,
      "count": 1950,
      "max": [
        1,
        1,
        0.94033259153366089,
        1
      ],
      "min": [
        -0.99571311473846436,
        -1,
        -0.99624788761138916,
        -1
      ],
      "type": "VEC4"
    },
    {
      "bufferView": 1,
      "byteOffset": 105208,
      "componentType": 5126,
      "count": 1950,
      "max": [
        0.99365228414535522,
        0.98828130960464478
      ],
      "min": [
        -0.97607421875,
        0.17321780323982239
      ],
      "type": "VEC2"
    },
    {
      "bufferView": 0,
      "byteOffset": 68808,
      "componentType": 5125,
      "count": 2754,
      "max": [
        1949
      ],
      "min": [
        0
      ],
      "type": "SCALAR"
    }
  ],
  "asset": {
    "extras": {
      "author": "justzht (https://sketchfab.com/justzht)",
      "license": "CC-BY-NC-4.0 (http://creativecommons.org/licenses/by-nc/4.0/)",
      "source": "https://sketchfab.com/models/bbf33ef1357c4e9bbd14414d913186b4",
      "title": "TRISTAN"
    },
    "generator": "Sketchfab-3.19.6",
    "version": "2.0"
  },
  "bufferViews": [
    {
      "buffer": 0,
      "byteLength": 79824,
      "byteOffset": 0,
      "name": "floatBufferViews",
      "target": 34963
    },
    {
      "buffer": 0,
      "byteLength": 120808,
      "byteOffset": 79824,
      "byteStride": 8,
      "name": "floatBufferViews",
      "target": 34962
    },
    {
      "buffer": 0,
      "byteLength": 362424,
      "byteOffset": 200632,
      "byteStride": 12,
      "name": "floatBufferViews",
      "target": 34962
    },
    {
      "buffer": 0,
      "byteLength": 241616,
      "byteOffset": 563056,
      "byteStride": 16,
      "name": "floatBufferViews",
      "target": 34962
    }
  ],
  "buffers": [
    {
      "byteLength": 804672,
      "uri": "scene.bin"
    }
  ],
  "images": [
    {
      "uri": "textures/shape0_baseColor.png"
    },
    {
      "uri": "textures/shape0_metallicRoughness.png"
    },
    {
      "uri": "textures/shape0_emissive.png"
    },
    {
      "uri": "textures/shape1_baseColor.png"
    },
    {
      "uri": "textures/shape1_metallicRoughness.png"
    },
    {
      "uri": "textures/shape1_emissive.png"
    }
  ],
  "materials": [
    {
      "doubleSided": true,
      "emissiveFactor": [
        1,
        1,
        1
      ],
      "emissiveTexture": {
        "index": 2,
        "texCoord": 0
      },
      "name": "shape0",
      "occlusionTexture": {
        "index": 1,
        "strength": 1,
        "texCoord": 0
      },
      "pbrMetallicRoughness": {
        "baseColorFactor": [
          1,
          1,
          1,
          1
        ],
        "baseColorTexture": {
          "index": 0,
          "texCoord": 0
        },
        "metallicFactor": 1,
        "metallicRoughnessTexture": {
          "index": 1,
          "texCoord": 0
        },
        "roughnessFactor": 1
      }
    },
    {
      "doubleSided": true,
      "emissiveFactor": [
        1,
        1,
        1
      ],
      "emissiveTexture": {
        "index": 5,
        "texCoord": 0
      },
      "name": "shape1",
      "occlusionTexture": {
        "index": 4,
        "strength": 1,
        "texCoord": 0
      },
      "pbrMetallicRoughness": {
        "baseColorFactor": [
          1,
          1,
          1,
          1
        ],
        "baseColorTexture": {
          "index": 3,
          "texCoord": 0
        },
        "metallicFactor": 1,
        "metallicRoughnessTexture": {
          "index": 4,
          "texCoord": 0
        },
        "roughnessFactor": 1
      }
    }
  ],
  "meshes": [
    {
      "primitives": [
        {
          "attributes": {
            "NORMAL": 1,
            "POSITION": 0,
            "TANGENT": 2,
            "TEXCOORD_0": 3
          },
          "indices": 4,
          "material": 0,
          "mode": 4
        }
      ]
    },
    {
      "primitives": [
        {
          "attributes": {
            "NORMAL": 6,
            "POSITION": 5,
            "TANGENT": 7,
            "TEXCOORD_0": 8
          },
          "indices": 9,
          "material": 1,
          "mode": 4
        }
      ]
    }
  ],
  "nodes": [
    {
      "children": [
        1
      ],
      "name": "RootNode (gltf orientation matrix)",
      "rotation": [
        -0.70710678118654746,
        -0,
        -0,
        0.70710678118654757
      ]
    },
    {
      "children": [
        2
      ],
      "name": "RootNode (model correction matrix)"
    },
    {
      "children": [
        3,
        4
      ],
      "name": "TRISTAN.unity_1.obj.cleaner"
    },
    {
      "mesh": 0,
      "name": ""
    },
    {
      "mesh": 1,
      "name": ""
    }
  ],
  "samplers": [
    {
      "magFilter": 9729,
      "minFilter": 9987,
      "wrapS": 10497,
      "wrapT": 10497
    }
  ],
  "scene": 0,
  "scenes": [
    {
      "name": "OSG_Scene",
      "nodes": [
        0
      ]
    }
  ],
  "textures": [
    {
      "sampler": 0,
      "source": 0
    },
    {
      "sampler": 0,
      "source": 1
    },
    {
      "sampler": 0,
      "source": 2
    },
    {
      "sampler": 0,
      "source": 3
    },
    {
      "sampler": 0,
      "source": 4
    },
    {
      "sampler": 0,
      "source": 5
    }
  ]
}

